# xmcd
#
# Track frame offsets: 
#        150
#        22902
#        46277
#        66918
#        88984
#
# Disc length: 1494 seconds
#
# Revision: 0
# Processed by: cddbd v1.5.2PL0 Copyright (c) Steve Scherf et al.
# Submitted via: ExactAudioCopyFreeDBPlugin 1.0
#
DISCID=3b05d405
DTITLE=มาลีฮวนน่า ชุดที่ 9 - บางอย่าง
DYEAR=1900
DGENRE=Thai Country
TTITLE0=มาลีฮวนน่า - บางอย่าง
TTITLE1=มาลีฮวนน่า - ทุกอย่าง
TTITLE2=มาลีฮวนน่า - จะไม่ลืมพระคุณ
TTITLE3=มาลีฮวนน่า - เบื่อแล้ว... เซ็งแล้ว
TTITLE4=มาลีฮวนน่า - ที่รัก
EXTD=
EXTT0=
EXTT1=
EXTT2=
EXTT3=
EXTT4=
PLAYORDER=
